<?xml version="1.0" encoding="utf-8" ?><svg xmlns="http://www.w3.org/2000/svg" xmlns:xlink="http://www.w3.org/1999/xlink" width="1024" height="1024" viewBox="0 0 1024 1024"><path fill="#111" d="M466.474 307.755C473.289 307.117 486.01 307.545 493.094 307.6L537.606 307.754L593.298 307.539C604.597 307.516 617.229 307.156 628.388 308.682C668.053 314.105 702.373 347.358 709.352 386.737C707.717 392.099 710.748 409.205 708.919 415.756C708.72 416.468 709.427 420.523 708.408 421.501C707.178 423.202 706.797 425.591 707.225 427.631C707.607 431.46 703.462 430.181 705.872 435.278C705.321 439.397 699.923 449.606 697.671 453.224C682.767 477.163 662.998 490.145 636.377 496.933C639.459 501.862 644.815 508.382 648.488 513.16C653.328 519.522 658.099 525.937 662.8 532.402C674.356 548.083 686.065 563.651 697.923 579.105C703.386 586.322 707.864 592.83 713.658 599.945C691.454 599.478 668.95 600.176 646.799 599.595C642.04 594.839 635.39 585.077 631.356 579.45L614.853 556.823L572.12 498.318C559.356 480.551 545.225 460.134 531.525 443.344C557.544 442.393 584.962 443.458 612.39 443.14C649.928 442.705 663.472 402.764 639.079 376.766C628.788 365.798 613.164 366.088 598.335 366.406C563.049 367.164 526.78 365.465 491.397 366.673C476.798 383.856 463.022 401.735 448.663 419.071C460.714 436.412 474.619 454.115 487.328 471.12L551.426 557.086L571.395 583.656C575.549 589.085 579.816 594.083 583.643 599.763L513.664 599.605C507.646 592.721 495.879 575.003 489.843 566.694L445.938 506.876C437 494.514 424.751 476.426 415.547 465.168C413.319 467.357 409.468 472.574 407.447 475.192L392.252 495.156C383.806 506.29 374.096 517.814 366.098 528.962C365.454 552.373 366.686 576.849 365.9 600.323C360.302 600.708 351.268 600.407 345.465 600.4L307.194 600.442L307.409 408.715L307.354 346.216C307.309 335.279 306.778 320.088 307.526 309.716C313.578 309.156 325.359 309.381 331.775 309.385C342.735 309.392 355.244 308.991 366.084 309.499C365.98 336.781 366.049 364.063 366.291 391.344C366.363 406.881 365.884 423.179 366.504 438.554C368.738 435.538 371.25 432.53 373.565 429.553C390.663 407.556 407.644 385.382 424.303 363.048L449.043 330.205C453.217 324.574 461.818 312.274 466.474 307.755Z"/><path fill="#111" d="M669.565 670.177C677.622 669.998 678.684 671.376 684.756 676.084C684.765 676.004 684.774 675.925 684.783 675.846L685.278 670.491C687.713 670.368 689.026 670.384 691.454 670.435C691.41 683.743 691.048 696.993 691.287 710.289C689.174 710.319 687.174 710.339 685.052 710.329C685.082 709.306 685.325 704.622 685.064 704.011C684.362 703.638 682.919 705.893 682.384 706.504C680.374 708.479 679.539 708.99 676.649 709.756C656.904 714.992 644.011 694.03 654.572 677.796C658.102 672.37 663.68 670.999 669.565 670.177ZM674.681 704.622C682.458 702.616 687.153 694.704 685.187 686.917C683.221 679.13 675.333 674.395 667.536 676.322C659.684 678.263 654.907 686.22 656.888 694.063C658.868 701.905 666.849 706.641 674.681 704.622Z"/><path fill="#111" d="M417.506 670.177C425.196 669.843 428.121 671.327 434.107 676.281C434.611 669.453 433.024 670.562 439.924 670.585L440.017 710.408C438.674 710.429 437.331 710.438 435.988 710.434C432.009 710.403 435.49 706.274 434.293 704.292C433.633 704.079 432.425 705.955 432.007 706.436C416.155 718.011 396.105 704.983 400.098 685.75C402.041 676.393 408.571 671.717 417.506 670.177ZM421.732 705.489C441.095 701.792 437.465 674.86 418.434 675.541C399.142 680.176 402.274 705.216 421.732 705.489Z"/><path fill="#111" d="M551.575 670.196C557.915 670.682 561.025 672.72 565.494 677.194C565.591 669.75 564.456 671.056 571.537 670.772C570.923 680.809 571.014 690.017 571.034 700.047C571.037 701.614 571.192 708.657 570.931 709.714L570.891 709.685C570.856 709.883 570.821 710.081 570.786 710.279C570.112 710.502 566.599 710.685 565.951 710.008C565.027 709.043 566.185 703.901 565.269 703.727C562.88 706.132 563.799 705.39 560.829 707.748C540.481 719.446 521.354 693.967 535.682 676.679C539.753 671.768 545.575 670.575 551.575 670.196ZM552.733 705.063C560.838 704.309 566.78 697.1 565.973 689C565.166 680.9 557.918 675.005 549.824 675.865C541.803 676.717 535.974 683.883 536.774 691.91C537.573 699.936 544.702 705.811 552.733 705.063Z"/><path fill="#111" d="M601.079 670.147C612.165 669.697 621.555 678.238 622.153 689.317C622.752 700.395 614.337 709.898 603.267 710.645C595.974 711.137 588.98 707.666 584.961 701.56C580.943 695.453 580.521 687.657 583.858 681.153C587.196 674.649 593.775 670.444 601.079 670.147ZM605.693 704.589C613.548 702.475 618.176 694.367 616.002 686.529C613.828 678.691 605.684 674.125 597.863 676.359C590.126 678.569 585.62 686.605 587.77 694.359C589.921 702.113 597.923 706.68 605.693 704.589Z"/><path fill="#111" d="M307.423 654.497C309.231 654.362 311.191 654.393 313.016 654.376L312.963 692.497C317.594 687.363 330.484 674.623 335.619 670.807C337.765 670.624 340.134 670.558 342.305 670.45C338.625 675.179 330.4 682.894 325.95 687.238L336.591 700.051C339.352 703.591 341.592 706.716 344.133 710.421C342.05 710.393 339.966 710.339 337.884 710.258C333.191 705.286 326.437 696.565 321.952 691.04C319.067 693.654 315.153 696.911 312.963 699.999C312.888 703.274 313.819 707.17 312.189 709.62C310.1 710.668 310.193 710.265 307.501 710.172L307.423 654.497Z"/><path fill="#111" d="M459.905 676.907C464.733 671.89 466.453 670.97 473.248 670.422C481.005 669.796 489.186 675.146 489.881 683.253C490.569 691.293 490.204 701.865 490.384 710.143C488.438 710.099 486.487 710.189 484.546 710.043C484.696 702.933 485.114 694.757 484.867 687.753C484.361 684.84 483.838 681.615 481.617 679.393C476.822 674.896 468.473 674.226 463.806 679.309C458.419 685.177 460.213 690.759 459.959 698C459.819 701.994 459.937 706.217 459.977 710.251C457.77 710.418 456.198 710.44 453.986 710.4C454.221 697.997 453.511 682.617 454.096 670.738C460.808 670.517 459.394 669.672 459.905 676.907Z"/><path fill="#111" d="M378.907 676.411C383.043 672.564 386.317 670.203 392.254 670.448C392.49 670.457 393.226 670.554 393.253 670.74C393.446 672.051 393.37 674.298 393.234 675.637C393.202 675.962 392.249 676.016 392.015 676.007C389.1 675.895 386.555 676.601 384.117 678.278C381.414 680.138 379.579 683.014 379.031 686.249C378.842 687.382 378.675 688.517 378.561 689.66C378.542 697.011 378.556 702.792 379.062 710.097C376.814 710.28 375.261 710.328 373.005 710.283C373.39 697.271 373.158 683.738 373.056 670.683C380.132 670.377 379.17 669.347 378.907 676.411Z"/><path fill="#111" d="M510.043 677.229L510.428 676.809C513.305 673.611 516.1 671.416 520.501 670.658C521.167 670.544 523.781 670.307 524.311 670.683C524.43 671.157 524.174 674.499 524.203 674.764C524.528 677.786 518.967 673.883 514.144 679.15C511.047 682.532 510.136 683.752 509.94 688.875C509.824 695.002 510.026 703.686 509.464 709.864C509.42 710.344 504.928 710.451 504.163 709.797C504.039 709.374 504.014 674.404 504.01 670.58C505.875 670.567 507.74 670.54 509.604 670.499C509.719 672.751 509.92 674.968 510.043 677.229Z"/><path fill="#111" d="M705.259 670.64C707.178 670.684 709.061 670.685 710.983 670.756C711.083 675.382 711.251 709 710.443 710.289C709.583 710.252 706.264 710.312 705.697 709.801C705.523 708.826 705.725 705.2 705.714 704.007C705.603 692.888 705.303 681.743 705.259 670.64Z"/><path fill="#111" d="M353.113 670.841C354.921 670.867 356.743 670.921 358.543 670.933C358.732 683.138 358.895 698.098 358.519 710.268C356.74 710.321 354.96 710.331 353.181 710.3C353.337 697.189 353.003 683.959 353.113 670.841Z"/><path fill="#111" fill-opacity="0.96470588" d="M705.872 435.278C703.462 430.181 707.607 431.46 707.225 427.631C706.797 425.591 707.178 423.202 708.408 421.501C709.427 420.523 708.72 416.468 708.919 415.756C710.748 409.205 707.717 392.099 709.352 386.737C712.804 401.524 711.105 421.14 705.872 435.278Z"/><path fill="#111" d="M636.246 701.822C638.546 701.435 640.751 702.902 641.282 705.174C641.813 707.445 640.487 709.737 638.254 710.41C636.678 710.884 634.97 710.445 633.82 709.269C632.67 708.092 632.269 706.375 632.778 704.811C633.288 703.247 634.624 702.095 636.246 701.822Z"/><path fill="#111" d="M706.624 653.66C708.825 653.127 711.064 654.387 711.75 656.546C712.436 658.704 711.336 661.025 709.231 661.861C707.732 662.457 706.025 662.166 704.808 661.107C703.59 660.048 703.066 658.398 703.448 656.83C703.831 655.263 705.056 654.039 706.624 653.66Z"/><path fill="#111" d="M354.193 653.662C355.633 653.082 357.274 653.326 358.483 654.299C359.693 655.273 360.281 656.825 360.021 658.355C359.762 659.886 358.695 661.157 357.232 661.677C355.034 662.46 352.613 661.341 351.786 659.159C350.959 656.977 352.028 654.534 354.193 653.662Z"/></svg>