<?xml version="1.0" encoding="utf-8" ?><svg xmlns="http://www.w3.org/2000/svg" xmlns:xlink="http://www.w3.org/1999/xlink" width="1024" height="1024" viewBox="0 0 1024 1024"><path fill="#C00" d="M532.3 262.695L533.817 262.588L534.131 263.036C533.631 264.608 528.044 271.387 526.536 273.652C519.135 284.943 513.897 297.512 511.092 310.719C506.888 331.289 512.199 353.418 523.799 370.843C550.239 410.558 612.815 407.975 621.41 355.872C624.829 335.145 616.309 317.121 604.453 300.747C651.376 325.231 663.84 372.028 646.615 420.019C641.753 433.565 630.488 455.252 620.266 465.599C599.185 486.937 569.916 506.739 542.863 519.543C541.952 514.881 540.795 509.985 539.776 505.321C534.242 482.598 527.643 459.625 522.131 436.826C519.502 425.951 515.303 412.983 513.185 402.244C500.945 440.301 492.05 481.166 479.797 519.083C448.99 504.199 401.846 462.907 379.868 437.019C389.118 353.214 443.023 272.723 532.3 262.695Z"/><path fill="#C00" d="M412.042 157.201C441.763 163.5 472.885 168.633 502.85 173.912C530.25 178.739 552.909 181.593 579.451 190.353C583.552 197.364 586.773 205.067 590.787 212.273C597.039 214.72 608.773 217.933 615.982 220.428C621.549 230.032 626.509 239.989 631.83 249.73C633.459 252.711 635.17 255.655 636.596 258.741C579.331 239.251 529.028 235.878 473.705 263.906C417.873 292.192 392.565 331.77 372.392 388.733C372.303 389.245 371.789 390.831 371.616 391.42L371.135 391.451C370.449 388.981 370.624 387.255 370.648 384.703C368.677 333.039 381.862 282.837 417.285 243.401C435.532 223.087 452.313 215.86 475.92 204.343C462.415 194.023 448.796 183.852 435.066 173.832C427.987 168.668 419.261 161.982 412.042 157.201ZM535.179 209.01C543.875 210.24 553.434 211.687 562.034 213.276C561.908 215.197 561.743 217.114 561.618 219.035C567.669 219.615 573.765 219.941 579.725 221.139C575.884 216.155 569.429 210.128 564.939 204.908C555.305 205.239 545.697 206.109 536.159 207.514L535.179 209.01Z"/><path fill="#E5817F" d="M527.209 207.873C530.195 207.596 533.161 207.304 536.159 207.514L535.179 209.01C532.044 209.231 530.294 208.562 527.209 207.873Z"/><path fill="#C00" d="M556.843 668.226C563.576 667.884 574.822 668.014 581.464 668.254L581.516 793.502L554.137 793.472C552.391 791.309 549.106 785.836 547.416 783.213L534.556 763.303L501.909 712.691C502.031 719.848 502.661 791.286 500.985 793.51L476.463 793.5C476.229 787.701 476.171 780.822 476.345 775.024C477.4 739.858 475.097 703.51 476.347 668.513C484.049 668.007 494.928 668.393 502.721 668.544L541.421 727.698C545.729 734.375 551.787 742.801 555.471 749.329C555.387 741.055 555.461 671.361 556.843 668.226Z"/><path fill="#C00" d="M363.789 668.146C367.653 668.012 372.02 668.057 375.913 668.162C401.52 668.847 427.94 667.324 453.47 668.424C453.181 677.136 453.061 685.853 453.11 694.57L390.017 694.536C389.959 701.347 390.285 712.118 389.612 718.452C406.836 718.04 428.059 717.901 445.174 718.276C445.62 725.065 445.389 735.296 445.331 742.335C428.387 742.701 410.883 742.599 393.875 742.802C392.286 742.81 392.154 742.726 390.614 743.271C390.044 745.955 390.135 763.38 390.111 766.799C411.488 767.184 433.136 766.476 454.322 766.987C454.626 774.962 454.316 785.325 454.31 793.514L363.521 793.493C363.453 783.067 362.276 670.957 363.789 668.146Z"/><path fill="#C00" d="M754.623 668.24C757.842 668.177 761.189 668.232 764.419 668.245C761.937 673.157 756.979 679.83 753.732 684.717C748.368 692.942 743.077 701.215 737.859 709.533C733.651 716.22 728.123 724.684 725.011 731.753C728.804 738.866 733.44 744.639 737.518 751.234C746.303 765.442 756.88 779.455 765.603 793.472C756.487 793.704 746.667 793.494 737.5 793.464C734.666 790.307 729.077 781.173 726.434 777.104L708.627 750.195C705.164 754.566 701.197 761.702 698.288 766.65C693.042 775.538 687.882 784.477 682.81 793.464L666.69 793.495L654.016 793.55C655.041 791.512 656.934 788.601 658.243 786.67C670.825 768.112 681.684 748.142 694.196 729.59C684.103 714.182 675.313 697.759 664.837 682.552C661.735 678.049 658.56 673.138 655.813 668.435C665.394 668.171 676.465 668.291 686.022 668.492C694.368 681.218 701.992 697.553 710.271 710.591C714.992 702.292 719.743 694.616 724.901 686.6C728.691 680.711 732.27 674.118 736.458 668.549C742.187 668.267 748.821 668.321 754.623 668.24Z"/><path fill="#C00" d="M256.101 668.078C266.966 667.71 279.996 668.111 291 668.156L344.153 668.16C344.068 676.894 344.331 685.748 344.359 694.511L307.352 694.637C300.294 694.659 290.548 694.413 283.684 694.996C283.311 702.54 283.66 712.661 283.704 720.397C290.207 721.107 299.234 720.91 305.94 720.905L338.19 720.843C338.319 725.224 338.182 730.197 338.163 734.625L338.303 744.078C320.47 744.001 301.401 743.716 283.638 744.163C283.449 760.451 283.77 777.27 283.865 793.592L256.457 793.468C255.677 779.391 256.235 760.741 256.186 746.194C256.099 720.294 255.831 693.948 256.101 668.078Z"/><path fill="#C00" d="M512.226 462.368C513.568 464.085 527.782 523.436 529.436 529.749L545.82 590.323C543.66 593.346 515.566 620.325 512.254 622.869C507.519 619.326 500.224 612.185 495.797 607.993C490.269 602.76 483.283 596.424 478.202 590.884C486.55 556.933 496.612 523.223 504.927 489.226C507.053 480.535 509.35 470.768 512.226 462.368Z"/><path fill="#C00" d="M609.023 668.408C617.657 668.108 627.264 668.356 635.969 668.404C635.878 709.649 636.68 752.471 635.998 793.488L609.016 793.473L609.023 668.408Z"/><path fill="#ED0806" d="M340.982 815.096C353.494 814.757 363.951 824.545 364.439 837.053C364.927 849.56 355.264 860.133 342.763 860.77C334.543 861.189 326.733 857.156 322.315 850.211C317.897 843.266 317.555 834.483 321.418 827.215C325.281 819.947 332.754 815.318 340.982 815.096ZM345.722 855C355.129 852.785 360.937 843.339 358.667 833.945C356.398 824.552 346.918 818.799 337.538 821.122C328.235 823.427 322.539 832.813 324.79 842.129C327.04 851.446 336.392 857.196 345.722 855Z"/><path fill="#C00" d="M419.077 507.624C421.113 506.093 419.667 507.579 422.014 507.169C439.974 521.657 457.567 535.052 475.789 549.117C471.162 562.935 468.136 578.499 464.102 592.575C454.351 573.825 444.488 555.134 434.511 536.503C429.675 527.451 423.427 516.601 419.077 507.624Z"/><path fill="#C00" d="M600.84 509.061C603.346 509.492 602.431 508.984 604.007 511.167C592.645 531.132 582.295 552.266 571.099 572.386C567.375 579.079 564.305 585.957 560.389 592.744C558.333 586.066 556.818 578.709 555.135 571.867C553.302 564.415 551.228 556.895 549.542 549.431C564.296 536.451 584.875 522.228 600.84 509.061Z"/><path fill="#ED0806" d="M739.884 815.575C751.817 814.68 759.928 817.928 764.582 829.593C762.491 829.757 760.734 829.805 758.658 829.894C756.618 826.64 755.555 824.765 752.189 822.68C744.263 817.769 733.202 820.398 729.279 829.169C722.773 843.717 734.014 860.338 750.527 854.658C755.939 852.781 758.068 847.372 760.169 842.541C758.781 842.345 756.174 842.274 754.623 842.154C750.81 842.129 746.531 842.602 742.836 842.122C742.668 842.1 741.377 837.633 743.477 837.392C751.143 836.515 758.365 837.463 766.082 837.479L765.64 840.753C765.159 844.172 764.39 846.374 762.747 849.461C760.068 854.494 755.47 858.233 749.996 859.829C720.979 868.021 709.539 822.528 739.884 815.575Z"/><path fill="#ED0806" d="M413.992 816.018C415.793 816.045 417.591 816.094 419.391 816.084C419.638 830.028 419.25 844.308 419.027 858.266C418.986 860.787 414.857 859.988 412.882 860.041C410.544 856.278 395.414 826.371 394.059 826.102C393.796 826.05 393.365 826.105 393.17 826.313C390.325 829.36 394.977 859.457 391.309 859.687C391.041 859.704 390.773 859.702 390.506 859.713C390.253 859.724 390 859.745 389.747 859.751C389.137 859.765 388.299 859.744 387.848 859.264C387.21 858.586 387.433 820.778 387.553 816.148C389.931 816.093 392.087 816.094 394.468 816.124C399.92 826.465 405.398 837.702 411.151 847.675C412.28 846.444 412.269 846.49 413.71 845.65C414.141 835.841 413.826 825.879 413.992 816.018Z"/><path fill="#FEFEFE" d="M413.71 845.65C413.878 848.044 413.809 850.429 413.818 852.834C412.876 851.264 411.771 849.399 411.151 847.675C412.28 846.444 412.269 846.49 413.71 845.65Z"/><path fill="#ED0806" d="M667.403 815.966C669.766 815.827 671.828 815.867 674.166 815.791C675.88 819.042 690.052 846.502 691.279 847.46C696.815 845.42 691.995 821.507 694.323 816.451C697.566 815.417 699.696 816.166 698.834 819.247C697.442 824.22 700.988 858.555 697.375 859.723C695.676 859.753 694.108 859.844 692.409 859.713C687.232 849.547 680.963 837.73 675.02 827.483C670.006 818.836 673.4 860.082 671.652 859.819C671.288 860.223 667.773 860.068 667.749 859.604C667.031 845.505 667.376 830.097 667.403 815.966Z"/><path fill="#ED0806" d="M275.833 815.656C285.304 814.884 293.356 817.737 297.949 826.767C298.198 827.257 298.993 828.801 298.801 829.363C298.612 829.522 298.565 829.505 298.279 829.55C291.156 830.662 293.824 827.321 287.878 823.159C284.511 820.767 280.314 819.851 276.256 820.623C254.104 824.854 259.505 860.5 284.089 854.674C288.882 852.582 289.788 851.281 293.381 847.552C295.596 847.181 296.647 847.16 298.85 846.971L298.444 847.842C291.08 863.936 268.962 864.987 259.93 850.286C251.291 836.224 259.101 818.749 275.833 815.656Z"/><path fill="#ED0806" d="M453.088 815.68C463.962 814.722 468.235 816.998 470.664 827.372C458.752 827.463 468.7 824.586 459.878 820.688C449.841 816.254 441.314 831.79 455.005 834.948L457.006 835.411C460.341 836.154 464.187 836.958 467.1 838.857C469.428 840.352 471.008 842.768 471.445 845.499C473.035 854.964 467.93 858.818 459.465 860.387C451.68 860.871 446.343 859.738 443.501 851.504C441.652 846.144 448.895 847.028 448.996 848.704C449.535 857.654 463.067 858.033 465.343 850.212C467.164 843.959 462.984 841.801 457.743 840.586L455.493 840.087C445.555 837.982 439.158 832.739 444.326 821.358C445.79 818.134 449.774 816.473 453.088 815.68Z"/><path fill="#ED0806" d="M493.56 816.066C494.706 816.048 497.683 815.614 498.619 816.247C499.454 816.811 498.702 842.436 499.211 845.716C499.252 845.979 499.302 846.241 499.344 846.504C499.513 847.555 499.675 848.493 500.064 849.49C501.004 851.898 502.855 853.943 505.284 854.892C508.156 856.013 511.713 855.805 514.495 854.483C516.754 853.434 518.517 851.55 519.414 849.227C521.295 844.369 519.556 828.517 520.288 822.359C520.399 821.422 518.422 813.502 525.34 816.211C526.013 816.474 525.807 820.406 525.792 821.25C525.888 835.901 530.93 860.627 509.5 860.503C488.408 860.38 493.382 830.914 493.56 816.066Z"/><path fill="#ED0806" d="M615.815 816.067C615.751 816.794 615.693 817.521 615.642 818.249C615.62 818.6 615.575 820.283 615.294 820.325C613.433 820.602 606.658 820.592 605.061 820.616C604.97 829.884 604.943 839.153 604.98 848.421L604.996 857.998C605.026 862.299 599.888 859.232 600.112 859.841C599.544 858.295 599.865 853.46 599.853 851.318C599.794 841.116 600.006 830.843 599.599 820.646C598.271 820.647 590.034 820.775 588.674 820.436C588.22 820.322 588.257 816.913 588.243 816.081L615.815 816.067Z"/><path fill="#ED0806" d="M550.357 816.077C550.99 816.086 555.191 815.934 555.213 816.581C555.6 827.727 555.568 844.396 555.514 855.119C557.583 855.158 571.23 854.851 572.303 855.203C572.804 855.759 572.574 859.178 572.556 859.936L550.393 860.001C549.875 848.315 549.893 827.853 550.357 816.077Z"/><path fill="#ED0806" d="M637.296 816.268C638.888 816.29 640.502 816.236 642.11 816.244C642.018 826.162 642.015 836.082 642.101 846C642.104 849.728 642.299 856.968 641.872 860.28C640.228 860.282 638.585 860.235 636.944 860.138C636.788 854.594 636.234 819.965 637.296 816.268Z"/><path fill="#ED0806" d="M600.84 509.061C603.3 507.08 605.267 505.452 607.86 503.601C607.117 505.221 604.946 509.907 604.007 511.167C602.431 508.984 603.346 509.492 600.84 509.061Z"/><path fill="#ED0806" fill-opacity="0.97647059" d="M416.197 502.516C417.884 503.763 420.638 505.613 422.014 507.169C419.667 507.579 421.113 506.093 419.077 507.624C418.257 506.891 416.76 503.621 416.197 502.516Z"/></svg>