<?xml version="1.0" encoding="utf-8" ?><svg xmlns="http://www.w3.org/2000/svg" xmlns:xlink="http://www.w3.org/1999/xlink" width="1024" height="1024" viewBox="0 0 1024 1024"><path fill="#C00" d="M496.419 631.252C499.966 631.208 503.512 631.199 507.058 631.225C511.588 634.622 518.692 641.744 522.965 645.787L551.163 672.403L583.202 702.035C593.807 711.916 601.545 716.686 605.589 731.024C606.689 698.999 604.597 664.022 604.955 631.229C620.92 631.195 638.101 631.097 654 631.522C654.265 684.995 654.256 738.468 653.972 791.94C646.597 791.745 606.886 792.799 603.644 790.751L538.92 727.789C529.272 718.364 503.285 695.235 497.988 685.068C498.193 720.353 499.106 756.817 498.683 792.004C482.956 791.846 467.229 791.835 451.502 791.97L451.489 631.495C465.999 631.138 481.782 631.388 496.419 631.252Z"/><path fill="#C00" d="M263.861 631.263C292.322 630.224 325.125 631.027 354.073 631.017L402.322 631.032C411.144 631.045 421.321 630.83 429.986 631.292L429.936 673.463L313.642 673.561C313.47 679.714 313.592 686.464 313.581 692.663C322.171 693.171 338.229 692.535 347.513 692.517L423.218 692.511C423.638 702.341 423.391 720.929 423.17 731.021L355.75 730.936C342.173 730.947 327.3 730.678 313.829 731.155C313.531 737.406 313.684 745.089 313.643 751.451C342.97 752.016 372.74 751.163 402.1 751.696C412.346 751.883 423.877 751.29 433.971 751.898C433.962 765.25 434.068 778.601 434.289 791.95C378.495 790.978 319.613 791.417 263.783 791.735L263.789 673.189L263.737 646.041C263.707 642.784 263.316 633.881 263.861 631.263Z"/><path fill="#C00" d="M736.806 631.003C743.622 631.531 753.096 631.334 760.069 631.322C773.405 631.238 786.742 631.235 800.079 631.311C810.778 643.358 820.597 656.641 830.866 669.065C834.099 672.976 837.523 677.172 840.526 681.256C843.814 677.785 848.203 671.904 851.314 667.963L869.454 644.961C872.87 640.64 876.875 635.366 880.735 631.542C887.1 631.169 895.817 631.408 902.343 631.405C915.738 631.443 929.133 631.369 942.526 631.182C938.6 636.378 931.641 643.961 927.138 649.271L891.185 691.849C885.438 698.636 879.138 705.394 873.743 712.407L926.098 768.349C930.778 773.38 944.407 787.267 947.632 791.997C925.716 791.757 903.799 791.772 881.883 792.041L853.842 758.729C849.23 753.285 844.785 747.552 839.845 742.443C826.267 756.904 811.646 778.345 798.17 791.878C777.425 791.756 756.68 791.813 735.936 792.049C758.347 765.167 784.542 738.81 807.149 711.454C799.637 701.807 787.984 689.53 779.641 679.86C765.718 663.724 751.376 646.418 736.806 631.003Z"/><path fill="#C00" d="M121.146 631.25C162.654 631.184 206.979 630.282 248.178 631.203C248.551 644.844 248.392 661.828 248.233 675.521L125.602 675.512C125.54 683.508 125.525 691.503 125.557 699.498C132.006 699.107 139.146 698.904 145.605 699.023C176.655 699.597 208.157 698.062 239.143 698.807C239.482 702.648 239.319 708.91 239.338 712.93C239.43 721.69 239.467 730.45 239.449 739.21C223.42 738.864 206.623 739.095 190.527 739.07L125.645 738.817C125.092 755.553 125.528 774.962 125.474 791.893C108.99 791.737 92.5038 791.737 76.019 791.894L75.87 631.295L121.146 631.25Z"/><path fill="#C00" d="M320.16 165.729C332.728 172.502 344.934 179.937 357.727 186.758C357.53 205.177 358.053 224.673 358.104 243.267C368.342 249.183 378.534 254.577 388.788 260.368L489.883 317.633C496.351 321.332 503.055 324.55 509.46 328.303C509.455 375.238 509.941 423.269 509.384 470.114C497.372 478.774 478.83 488.284 465.812 496.333C465.9 502.844 465.859 509.356 465.687 515.865C462.698 519.463 458.66 523.101 455.233 526.368C448.86 532.229 441.059 540.502 434.502 545.73C434.187 526.17 435.206 503.092 435.554 483.372C441.818 478.282 461.897 466.781 469.978 461.504L469.924 349.18C459.866 343.238 449.042 337.494 438.795 331.728L361.927 288.744C348.97 281.509 331.614 272.59 319.502 264.834C318.814 253.623 319.528 236.12 319.726 224.607C319.997 204.983 320.142 185.356 320.16 165.729Z"/><path fill="#C00" d="M702.983 165.977L703.296 166.273C703.8 168.508 703.659 172.268 703.634 174.703C703.324 204.577 705.183 234.686 704.457 264.53C696.196 270.287 686.207 275.245 677.305 280.118L643.574 298.968C617.673 313.543 591.831 328.194 566.051 342.984C562.106 345.247 558.073 347.432 554.026 349.503C554.357 387.008 554.438 424.515 554.271 462.022C565.411 468.276 578.121 476.174 588.976 483.086C589.496 504.258 589.562 524.721 590.348 546.001C584.287 540.67 578.397 535.147 572.689 529.441C568.793 525.57 561.357 519.255 558.578 515.134C558.208 508.906 558.165 502.608 558.055 496.367C553.907 493.171 546.642 488.953 542.019 486.136L516.287 470.46C515.334 441.104 516.468 411.105 516.037 381.681C515.781 364.218 515.894 346.162 516.247 328.697C520.395 325.584 528.747 321.066 533.475 318.392L567.926 299.206L666.661 242.807L667.009 186.921C677.998 180.002 691.62 172.554 702.983 165.977Z"/><path fill="#C00" d="M319.317 275.684C356.538 295.338 393.477 315.519 430.124 336.222C440.151 341.929 453.782 348.474 462.973 354.341C463.067 357.755 463.059 361.322 463.01 364.738C462.701 386.275 463.415 407.955 463.211 429.469C456.757 426.73 445.155 419.818 438.457 416.255L392.157 392.027L349.903 369.87C349.841 360.217 349.562 349.626 349.892 340.045C353.133 341.543 356.4 343.119 359.564 344.772C380.596 355.759 402.63 365.298 423.441 376.655L421.561 370.288C408.012 361.266 388.284 351.7 373.868 343.393C355.898 333.038 337.693 322.539 319.506 312.613C318.863 302.769 319.191 285.904 319.317 275.684Z"/><path fill="#C00" d="M703.362 275.962C704.062 276.036 703.675 275.927 704.464 276.456C704.48 287.205 704.866 301.786 704.162 312.209C701.174 314.094 698.055 315.909 694.969 317.635C667.634 332.916 640.426 348.394 613.246 363.949C609.442 366.126 605.676 368.009 601.946 370.359C601.306 372.083 600.676 374.737 600.179 376.575C606.55 374.196 622.169 365.941 628.622 362.66C643.77 354.878 659.006 347.271 674.328 339.839C673.935 349.86 674.015 360.128 673.982 370.175L634.254 390.329L560.493 429.781C560.814 405.011 560.544 379.641 560.515 354.836C564.648 351.718 573.093 347.427 577.836 344.786C588.659 338.66 599.55 332.655 610.507 326.772C641.531 309.839 672.113 292.53 703.362 275.962Z"/><path fill="#C00" d="M675.346 631.493C690.117 631.06 708.316 631.299 723.13 631.532L722.982 791.961C707.014 791.837 691.044 791.835 675.076 791.955L675.346 631.493Z"/><path fill="#C00" d="M446.916 261.147C457.594 254.919 474.029 247.042 485.301 241.24C509.667 228.697 535.012 215.032 559.57 203.118C561.308 203.348 561.074 203.137 562.494 204.186C551.951 217.092 538.952 235.492 529.505 249.105C533.992 267.539 539.062 286.78 543.885 305.141C534.714 310.682 523.658 316.989 514.299 322.289C505.971 318.466 491.33 309.724 482.313 304.912C485.8 295.394 492.147 282.059 496.287 272.297C493.486 273.846 490.541 275.228 487.661 276.631C478.527 274.22 456.729 265.024 446.916 261.147Z"/><path fill="#C00" d="M204.664 823.687C225.168 821.883 244.369 828.278 244.1 852.764C243.916 869.574 232.796 876.54 217.587 878.902C207.175 879.793 195.502 879.378 186.504 872.915C175.088 864.714 173.871 844.634 182.153 833.824C187.556 826.771 196.117 824.533 204.664 823.687ZM216.12 873.465C222.768 872.466 228.906 870.706 232.877 865.011C239.4 855.656 237.607 838.825 227.49 832.614C220.033 828.035 213.259 828.106 205.152 828.622C189.239 831.608 181.42 841.129 184.841 857.916C187.897 872.908 203.366 874.272 216.12 873.465Z"/><path fill="#C00" d="M636.371 140.686C642.34 149.095 647.312 160.075 645.272 170.537C643.035 182.006 636.494 187.103 634.239 199.688C639.97 214.739 652.043 200.191 654.199 192.033C654.595 190.52 654.906 188.985 655.131 187.437L656.483 187.806C660.035 201.076 657.947 214.779 647.524 224.063C633.562 236.5 625.689 241.768 620.215 260.48C608.308 250.259 600.736 239.04 600.523 222.844C600.065 187.932 647.593 178.696 635.313 141.646L636.371 140.686Z"/><path fill="#C00" d="M386.84 139.679L387.585 141.607C376.028 174.181 422.09 188.942 422.258 220.438C422.352 238.06 416.394 248.651 403.047 260.019C397.106 226.119 358.225 225.606 366.046 190.381C367.75 191.59 367.991 191.102 369.721 192.689C371.617 197.105 381.924 211.327 386.8 203.674C393.08 193.817 378.733 179.122 377.967 167.981C377.175 156.456 379.63 149.064 386.84 139.679Z"/><path fill="#C00" d="M507.188 488.677L508.698 490.194L508.304 490.71C493.039 511.002 517.062 522.593 519.402 540.75C521.137 554.214 511.316 568.525 503.419 578.562C505.696 570.913 507.711 565.474 505.274 557.308C500.128 540.061 480.92 532.617 487.11 511.918C490.425 500.83 497.215 494.355 507.188 488.677Z"/><path fill="#C00" d="M907.601 823.67C924.128 821.812 939.171 824.711 944.685 842.412C942.145 842.823 939.621 842.926 937.053 843.092C934.744 836.24 931.845 831.656 924.286 829.721C917.102 827.765 903.563 828.117 897.287 831.948C882.343 841.07 884.777 869.734 904.244 872.215C913.4 873.382 922.823 874.292 930.797 869.176C936.005 865.834 937.32 861.461 938.465 856.055C933.356 855.829 927.539 855.982 922.375 856.002L907.792 856.076C907.749 854.454 907.842 852.472 907.872 850.819C919.178 850.392 933.12 850.797 944.595 850.806L946.141 877.52L940.523 877.66C940.37 874.671 940.084 871.512 939.857 868.512C935.404 874.342 930.061 877.514 922.804 878.381C911.875 879.563 898.692 879.618 889.522 872.657C878.089 863.98 877.137 844.626 885.892 833.748C891.465 826.823 899.095 824.671 907.601 823.67Z"/><path fill="#C00" d="M401.754 823.664C408.583 822.707 419.443 823.296 425.727 826.571C429.82 828.705 435.936 834.278 433.036 839.448C431.344 840.69 431.658 840.34 429.784 840.449C425.697 840.686 426.559 835.25 423.85 832.76C420.205 829.337 413.594 829.276 409.554 828.652C404.117 827.814 387.912 830.771 389.57 838.044C392.689 851.728 423.806 843.766 432.529 853.104C435.058 855.812 435.925 858.207 435.984 861.804C436.546 877.665 422.803 878.791 410.641 879.116C395.445 878.993 382.072 877.268 380.14 859.269L386.729 858.975C390.36 874.769 403.385 873.729 416.299 873.414C423.1 873.249 430.8 868.051 428.456 861.371C424.096 848.947 396.465 856.228 386.66 847.335C384.273 845.17 383.134 843.896 382.662 840.691C381.317 827.647 391.804 825.024 401.754 823.664Z"/><path fill="#C00" d="M782.468 824.882C786.113 824.686 789.695 824.91 793.341 825.064C796.61 828.333 799.503 832.32 802.737 835.487C813.612 846.14 823.352 858.73 834.088 869.343C834.662 864.25 834.423 856.944 834.417 851.57L834.487 825.404L840.815 825.298L840.933 861.283C840.945 864.171 841.176 875.562 840.698 877.394L839.125 877.62L833.084 877.537C818.362 862.596 804.14 845.447 789.678 830.895C788.832 843.636 789.611 864.034 789.415 877.66C787.305 877.904 784.607 877.878 782.439 877.919C781.938 861.31 782.299 841.548 782.468 824.882Z"/><path fill="#C00" d="M341.421 824.708L341.619 824.841C342.39 826.51 341.953 872.104 341.943 877.545L334.231 877.495C324.757 868.209 315.09 856.762 305.891 847.065C301.029 841.94 296.142 835.434 290.684 831.07C290.32 837.58 291.862 873.792 290.708 877.489L288.62 877.894C286.622 877.918 286.371 877.926 284.427 877.571C283.514 875.408 284.012 830.632 284.022 824.839C287.19 824.723 290.987 824.861 294.207 824.901C307.664 837.913 321.302 855.469 335.356 869.224C336.177 864.112 335.906 856.826 335.883 851.494L335.747 825.052L341.421 824.708Z"/><path fill="#C00" d="M102.859 824.177C118.311 822.367 135.525 825.101 140.421 842.186C138.12 842.363 135.606 842.425 133.282 842.53C128.002 830.158 118.527 828.807 106.306 829.147C93.7689 829.819 85.1981 836.181 84.4942 849.242C83.3272 870.898 99.9221 874.989 117.491 872.894C127.125 871.186 130.859 867.751 133.727 858.591L140.389 858.696C138.222 869.863 132.632 876.125 121.165 878.4C110.589 880.498 96.6154 879.443 87.3852 873.486C75.239 865.648 74.1826 845.702 81.667 834.326C86.0082 827.838 95.235 825.219 102.859 824.177Z"/><path fill="#C00" d="M476.333 825.029L483.48 824.998C483.647 834.327 483.344 844.06 483.396 853.372C483.232 867.015 488.863 873.611 502.477 873.718C518.405 873.843 526.514 868.752 525.816 851.689C525.71 849.092 525.822 845.563 525.775 842.861C525.672 837.06 525.604 831.226 525.506 825.42L532.196 825.349C532.322 827.157 532.275 829.22 532.278 831.05C532.165 855.619 538.882 878.381 504.976 879.478C469.217 880.636 476.184 850.037 476.333 825.029Z"/><path fill="#C00" d="M523.862 484.845C525.361 486.355 525.947 494.287 527.228 495.965C543.387 517.128 554.831 521.478 534.392 547.309C533.27 548.675 533.801 548.36 532.34 549.078C531.972 546.992 532.37 544.398 532.326 542.163C532.005 525.802 513.93 516.896 515.372 500.312C515.951 493.644 518.921 489.083 523.862 484.845Z"/><path fill="#C00" d="M638.983 825.071C648.509 824.947 658.25 825.137 667.81 825.091C674.311 825.06 687.216 824.312 693.332 825.162L693.783 825.871C693.829 827.766 694.203 828.532 693.362 829.823C689.327 830.276 675.378 829.95 670.258 830.047C669.969 838.299 670.117 846.844 670.154 855.125C670.316 862.618 670.369 870.112 670.31 877.606C667.971 877.75 665.352 877.689 662.987 877.688C663.13 861.818 663.139 845.948 663.014 830.078C655.841 829.847 646.277 830.464 639.445 829.834C638.746 828.591 638.969 826.578 638.983 825.071Z"/><path fill="#C00" d="M575.044 825.059L582.527 824.994C582.566 840.67 582.199 856.878 582.575 872.497C594.885 872.47 610.611 872.01 622.655 872.631C623.226 874.013 623.015 875.872 622.999 877.481C608.849 878.211 589.558 877.62 574.99 877.549L575.044 825.059Z"/><path fill="#C00" d="M732.329 824.945C734.607 824.816 737.283 824.842 739.598 824.804C740.055 832.004 739.769 842.342 739.8 849.793C739.836 858.206 740.131 869.3 739.567 877.49C737.119 878 734.88 877.772 732.372 877.681C732.239 860.103 732.224 842.524 732.329 824.945Z"/><path fill="#D82B20" fill-opacity="0.97647059" d="M366.046 190.381C366.785 188.155 367.267 186.527 368.187 184.335C368.633 187.563 369.135 189.594 369.721 192.689C367.991 191.102 367.75 191.59 366.046 190.381Z"/><path fill="#D82B20" fill-opacity="0.98431373" d="M564.844 200.51C564.088 201.734 563.451 203.103 562.494 204.186C561.074 203.137 561.308 203.348 559.57 203.118C561.36 202.142 563.023 201.395 564.844 200.51Z"/><path fill="#D82B20" fill-opacity="0.94509804" d="M386.84 139.679C387.496 138.719 387.984 137.9 388.965 137.373L389.006 137.294L389.125 137.269C389.565 137.674 387.848 140.954 387.585 141.607L386.84 139.679Z"/><path fill="#D82B20" fill-opacity="0.92941177" d="M507.188 488.677C510.71 487.094 511.464 487.068 508.698 490.194L507.188 488.677Z"/><path fill="#D82B20" fill-opacity="0.94509804" d="M635.313 141.646C634.224 138.942 633.273 136.279 636.371 140.686L635.313 141.646Z"/><path fill="#D82B20" fill-opacity="0.90196079" d="M655.131 187.437C655.123 187.095 654.921 185.383 655.655 185.391C656.101 185.805 656.343 187.245 656.483 187.806L655.131 187.437Z"/></svg>