<?xml version="1.0" encoding="utf-8" ?><svg xmlns="http://www.w3.org/2000/svg" xmlns:xlink="http://www.w3.org/1999/xlink" width="1024" height="1024" viewBox="0 0 1024 1024"><path fill="#C00" d="M714.728 151.882C715.902 152.898 716.562 158.111 716.79 159.813C723.118 206.969 709.479 254.928 676.281 289.475C673.63 292.233 670.68 294.781 667.777 297.271C635.949 324.093 603.683 350.405 572.32 377.775C560.747 387.899 546.996 398.557 537.652 410.642C525.059 426.931 514.948 450.536 512.079 471.001L505.962 458.75C493.967 436.649 488.388 407.995 491.409 382.996C497.076 336.104 526.754 311.269 560.745 282.827L598.609 250.657L677.927 182.771C689.465 173.02 702.982 160.929 714.728 151.882Z"/><path fill="#C00" d="M559.092 181.75C566.068 181.083 578.909 181.518 586.293 181.583C576.165 187.515 571.025 189.937 562.285 198.895C550.307 211.173 539.359 229.462 538.387 246.904C537.934 255.043 538.479 265.829 538.496 274.331C536.387 276.423 533.012 279.116 530.558 280.849C525.171 284.654 520.526 289.125 515.472 293.23C484.63 318.279 468.463 351.875 465.96 391.523C459.444 386.585 452.265 380.085 445.995 374.66C441.256 370.221 434.761 365.025 429.726 360.746L400.227 335.527C404.351 331.386 409.871 326.58 414.236 322.486C425.657 311.831 436.95 301.041 448.114 290.116C454.434 283.989 461.018 278.021 467.016 271.589C471.325 246.703 474.832 233.295 492.412 213.488C510.245 193.396 532.229 183.105 559.092 181.75Z"/><path fill="#C00" d="M309.163 151.688C313.054 153.931 317.736 158.345 321.308 161.357L347.737 183.973C369.479 202.182 391.02 220.629 412.357 239.311C421.011 246.794 434.048 256.909 441.855 264.757C439.24 267.466 434.491 271.47 431.588 274.093C424.841 280.121 418.208 286.275 411.691 292.552L382.137 320.88C377.451 317.468 372.925 312.675 368.365 309.046C344.568 290.104 324.604 266.595 314.688 237.318C306.285 212.506 303.319 177.696 309.163 151.688Z"/><path fill="#FD0201" d="M486.502 658.997C491.764 658.994 497.727 658.819 502.893 659.455C512.497 674.304 521.557 689.32 530.951 704.276C541.763 721.143 552.459 738.084 563.037 755.098L563.338 659.049C568.144 659.003 572.951 659.023 577.757 659.108C578.332 667.982 577.69 686.939 577.689 696.682L577.586 777.465C575.928 777.818 563.366 777.84 561.041 777.879C540.413 747.661 520.759 713.441 500.831 682.558C500.171 691.416 500.665 705.17 500.652 714.418L500.525 776.989C495.573 776.733 491.496 776.757 486.57 776.842C486.241 763.691 486.489 749.439 486.476 736.22L486.502 658.997Z"/><path fill="#C00" d="M526.307 504.786C528.2 504.597 530.888 504.157 532.464 505.131C533.126 507.199 532.265 529.124 532.148 532.763C531.145 564.131 530.245 595.348 529.947 626.738C518.59 626.565 507.233 626.491 495.875 626.517L494.78 626.489C493.641 625.047 493.859 607.459 493.76 604.348C492.997 585.94 492.398 567.525 491.965 549.106C491.596 534.565 490.682 519.534 490.534 505.117C502.501 504.972 514.318 505.098 526.307 504.786Z"/><path fill="#FD0201" d="M381.174 658.012L461.464 658.071C461.651 662.39 461.522 666.728 461.447 671.053C442.804 672.19 414.881 671.325 395.972 671.232L395.974 708.884C414.62 709.683 438.981 709.056 457.839 709.001C457.974 713.103 457.806 717.977 457.769 722.135C438.569 721.911 419.095 722.085 399.875 722.097L396.026 722.17L395.93 763.837C417.451 764.395 440.947 762.828 462.367 763.745C462.603 767.564 462.424 773.078 462.418 777.021C435.423 776.881 408.323 777.48 381.283 777.519C381.032 737.684 380.995 697.848 381.174 658.012Z"/><path fill="#FD0201" d="M641.766 659.37L658.659 659.537C668.572 674.291 677.756 689.463 687.786 704.248C694.276 694.566 700.498 684.184 707.1 674.52C710.188 670 713.937 663.396 717.447 659.39C722.772 659.33 728.107 659.176 733.415 659.574C730.331 665.507 722.587 676.86 718.698 682.851C711.655 693.701 703.977 706.34 696.41 716.597C708.736 735.52 724.894 759.23 738.176 777.482L733.625 777.502C729.289 777.481 724.954 777.424 720.62 777.331C710.32 763.017 698.053 741.938 687.652 729.205C686.127 731.768 684.203 734.684 682.446 737.122C673.234 749.908 665.596 764.273 656.488 777.03C650.636 777.251 644.78 777.35 638.924 777.329C652.534 758.029 665.04 736.398 678.732 716.552C667.61 697.617 653.303 678.428 641.766 659.37Z"/><path fill="#FD0201" d="M284.038 658.244C288.038 658.024 292.756 658.008 296.767 658.115C318.008 658.682 340.196 657.219 361.337 658.344C361.591 662.527 361.456 667.838 361.465 672.105C341.351 671.877 319.597 671.778 299.535 672.235L299.474 711.7C306.939 712.17 350.545 710.9 353.37 712.262L353.498 713.875L353.357 724.998C336.767 724.457 316.092 724.382 299.513 725.04C299.427 742.519 299.713 759.998 299.41 777.477L284.163 777.575L284.038 658.244Z"/><path fill="#C00" d="M547.902 450.811C550.937 453.598 559.557 468.941 562.374 473.592L580.886 503.807L596.407 528.695C599.462 533.583 603.436 539.62 605.874 544.723L590.858 558.247C585.404 562.99 580.037 567.833 574.76 572.773C571.404 561.453 567.666 540.788 565.037 528.506L547.902 450.811Z"/><path fill="#C00" d="M473.741 452.564C474.533 454.351 473.845 454.679 474.512 456.642C466.995 494.587 455.965 534.569 449.156 572.18C440.784 564.843 424.622 551.918 417.816 544.584C420.515 538.982 424.88 532.73 428.278 527.333L443.961 501.952C450.378 491.529 456.727 481.065 463.007 470.56C466.38 464.898 470.173 457.85 473.741 452.564Z"/><path fill="#C00" d="M557.731 435.395C562.343 436.781 588.841 452.264 594.237 455.087C618.499 467.783 642.841 481.19 666.759 494.551C662.356 497.978 657.993 501.455 653.669 504.982C648.412 509.281 641.59 515.126 636.132 518.88C633.946 517.125 631.247 514.306 629.338 512.202C605.868 486.337 580.912 461.484 557.731 435.395Z"/><path fill="#C00" d="M464.765 436.1C464.819 438.052 441.017 461.996 437.899 465.313L387.628 519.31C382.436 515.441 376.349 510.107 371.285 505.896C366.674 502.03 361.971 498.209 357.643 494.034C361.939 491.411 367.419 488.714 371.943 486.227C383.531 479.758 395.202 473.438 406.954 467.271C426.053 457.043 445.532 445.948 464.765 436.1Z"/><path fill="#FD0201" d="M351.54 802.577C376.649 799.942 385.615 820.562 377.015 841.805C374.716 847.484 368.103 851.18 362.366 853.012C347.819 856.307 335.285 848.27 333.547 833.3C331.891 819.045 335.97 805.791 351.54 802.577ZM359.631 847.209C379.012 842.647 378.638 806.824 354.322 808.158C350.365 808.901 345.538 811.174 343.698 814.81C336.428 829.178 340.104 849.262 359.631 847.209Z"/><path fill="#FD0201" d="M605.472 659.537C610.122 659.529 615.676 659.376 620.233 659.799C620.66 678.106 620.31 697.32 620.276 715.686L620.404 777.522L605.507 777.511L605.472 659.537Z"/><path fill="#FD0201" d="M642.443 803.095C644.605 802.999 646.769 802.95 648.933 802.947C657.067 812.436 663.665 827.578 671.98 837.11C672.338 837.521 674.328 834.845 674.366 834.268C675.047 823.91 674.704 813.489 674.864 803.116C677.09 803.067 679.1 803.068 681.317 803.088C681.447 805.834 681.061 851.864 680.861 852.346C680.409 852.609 677.143 852.553 676.376 852.571C676.293 852.565 676.209 852.559 676.126 852.554C675.75 852.533 675.373 852.526 674.999 852.487C672.706 852.25 651.814 818.275 648.84 814.111C647.934 825.051 648.618 841.02 648.453 852.5C646.286 852.507 644.119 852.496 641.953 852.466C641.919 837.925 641.454 817.415 642.443 803.095Z"/><path fill="#FD0201" d="M711.916 802.663C725.469 801.022 733.002 805.014 736.863 818.369L730.525 818.5C728.344 813.542 726.275 809.946 720.438 808.79C708.872 807.04 701.697 811.949 699.45 823.967C696.242 841.129 710.712 854.558 726.532 843.893C730.021 841.54 730.809 836.752 731.059 832.519L720.553 832.361C719.041 832.381 718.307 832.541 716.996 831.793C716.154 830.443 716.632 828.263 716.796 826.542C723.591 826.509 730.386 826.558 737.18 826.687C737.471 830.47 737.794 848.756 737.198 852.069C735.547 852.512 735.608 852.45 733.881 852.291C732.834 850.787 732.663 848.483 732.342 846.606C716.651 859.18 696.011 854.499 692.722 834.104C690.359 819.451 695.822 804.927 711.916 802.663Z"/><path fill="#FD0201" d="M424.224 802.686C426.412 802.758 428.298 802.824 430.497 802.815C430.62 818.24 430.851 837.291 430.175 852.511C427.967 852.499 425.759 852.517 423.551 852.565C414.869 840.66 405.937 826.293 398.037 813.725C397.889 826.575 398.187 839.674 397.914 852.468L391.831 852.509C390.985 837.922 391.487 817.986 391.496 803.051C393.849 803 396.202 802.988 398.556 803.016C406.927 814.607 414.821 828.617 423.805 841.043C424.378 830.506 424.474 813.281 424.224 802.686Z"/><path fill="#FD0201" d="M456.596 802.613C466.559 801.626 478.364 802.876 478.942 816.01C478.224 817.065 473.73 817.563 473.181 815.715C469.888 804.625 444.517 806.187 450.432 819C452.807 824.143 471.523 824.209 476.401 829.127C479.334 832.085 481.055 833.248 481.321 838.255C481.791 848.814 473.037 852.944 463.882 853.557C455.306 853.483 443.696 851.301 442.495 840.753L442.008 836.52C443.635 836.552 446.446 836.336 447.879 836.689C448.191 836.765 448.669 839.933 449.06 840.722C450.425 843.475 452.127 845.345 455.186 846.231C458.259 847.434 468.409 847.711 471.001 845.619C484.362 834.838 463.722 830.272 456.738 829.123C450.945 828.17 447.367 826.075 444.715 822.788C442.77 820.376 442.773 816.126 443.388 813.489C444.604 806.21 449.819 803.799 456.596 802.613Z"/><path fill="#FD0201" d="M524.291 802.921C531.749 802.843 531.116 801.556 530.998 808.205C531.034 814.784 531.02 821.427 531.024 828C530.908 834.19 531.811 844.253 526.548 848.766C516.372 857.492 492.462 854.77 492.419 838.001C492.389 826.228 492.076 814.588 492.338 802.957L499.41 802.993C499.637 815.25 498.818 828.043 499.709 840.192C500.263 847.747 512.76 848.099 518.111 846.665L519.066 846.429C522.868 842.602 523.804 841.125 524.04 835.502C524.493 824.685 523.8 813.714 524.291 802.921Z"/><path fill="#FD0201" d="M302.258 802.619C315.24 801.384 321.686 807.925 325.17 819.414C323.014 819.553 320.629 819.523 318.457 819.544C316.06 813.991 314.076 809.761 307.548 808.787C292.423 806.529 287.847 819.393 289.349 832.004C290.415 840.946 294.125 847.619 304.121 847.355C308.169 847.248 310.369 846.787 313.69 844.261C316.834 840.643 317.195 839.027 318.339 834.454C320.677 834.483 323.015 834.493 325.353 834.484C324.367 838.26 323.725 840.657 321.778 844.144C316.01 854.474 300.567 856.31 291.301 849.913C279.984 842.101 279.438 820.928 286.754 810.252C290.161 805.304 296.741 803.477 302.258 802.619Z"/><path fill="#FD0201" d="M573.445 803.08C585.83 802.845 599.95 802.939 612.436 803.038C612.483 805.1 612.486 806.954 612.452 809.015C607.132 808.939 601.811 808.943 596.492 809.027L596.504 836.25C596.518 841.626 596.491 847.003 596.424 852.379C594.079 852.314 591.854 852.303 589.505 852.185C589.312 837.827 589.645 823.263 589.404 808.973C587.536 808.962 574.233 809.356 573.693 808.696C572.873 807.692 573.396 804.242 573.445 803.08Z"/><path fill="#FD0201" d="M545.239 803.237C546.221 803.153 549.757 802.716 550.404 803.069C551.145 804.967 550.919 841.261 551.016 846.428C559.025 846.346 567.035 846.348 575.044 846.433C575.094 848.057 575.924 852.178 574.05 852.48L544.109 852.47C544.014 845.662 543.315 807.273 544.232 803.821C544.291 803.597 545.238 803.238 545.239 803.237Z"/><path fill="#FD0201" d="M621.033 803.083C623.355 803.037 625.679 803.02 628.002 803.031C628.155 818.791 628.439 837.026 628.087 852.648C625.75 852.557 623.489 852.558 621.159 852.509C620.939 836.236 620.945 819.35 621.033 803.083Z"/><path fill="#FD0201" fill-opacity="0.95686275" d="M473.741 452.564C474.21 451.347 475.026 450.36 475.835 449.322L476.013 449.09C475.491 452.167 475.315 453.565 474.512 456.642C473.845 454.679 474.533 454.351 473.741 452.564Z"/></svg>